<svg xmlns="http://www.w3.org/2000/svg" viewBox="0 0 700 700">
  <defs><filter id="g"><feGaussianBlur stdDeviation="7" result="b"/><feMerge><feMergeNode in="b"/><feMergeNode in="SourceGraphic"/></feMerge></filter></defs>
  <g fill="#020914" stroke="#182536" stroke-width="8" filter="url(#g)">
    <path d="M350 101c42-48 85-48 113-17 48-17 86 9 92 55 53 9 75 49 57 92 40 30 42 74 7 108 24 48 4 89-41 105 6 57-29 90-78 86-21 48-67 60-107 31-40 29-86 17-107-31-49 4-84-29-78-86-45-16-65-57-41-105-35-34-33-78 7-108-18-43 4-83 57-92 6-46 44-72 92-55 28-31 71-31 113 17z"/>
    <path d="M350 175c100 0 165 77 165 177 0 117-78 193-165 193s-165-76-165-193c0-100 65-177 165-177z"/>
    <path d="M240 515c-58 31-95 73-112 137h444c-17-64-54-106-112-137"/>
  </g>
  <path d="M245 212c57-45 154-58 238-2-60-9-91 4-120 25-36-20-72-29-118-23z" fill="#06101b" stroke="#182536" stroke-width="8"/>
  <rect x="286" y="185" width="168" height="44" rx="22" fill="#06101b" stroke="#182536" stroke-width="8"/>
</svg>
