<svg xmlns="http://www.w3.org/2000/svg" viewBox="0 0 64 64" role="img" aria-label="UniSat Wallet">
<defs><linearGradient id="g" x1="10" y1="8" x2="54" y2="56" gradientUnits="userSpaceOnUse"><stop stop-color="#ff8a00"/><stop offset=".55" stop-color="#ffb000"/><stop offset="1" stop-color="#f16a00"/></linearGradient></defs>
<rect width="64" height="64" rx="14" fill="#080808"/>
<path d="M46.8 14.2c-5.7-5.5-14.7-5.5-20.3 0L15 25.4c-5.8 5.7-5.8 14.8 0 20.4 5.6 5.5 14.6 5.5 20.3 0l5.6-5.5-8.2-8-5.6 5.5c-1.1 1.1-2.9 1.1-4 0-1.1-1.1-1.1-2.8 0-3.9l11.5-11.2c1.1-1.1 2.9-1.1 4 0l8.2-8.5z" fill="url(#g)"/>
<path d="M17.2 49.8c5.7 5.5 14.7 5.5 20.3 0L49 38.6c5.8-5.7 5.8-14.8 0-20.4-5.6-5.5-14.6-5.5-20.3 0l-5.6 5.5 8.2 8 5.6-5.5c1.1-1.1 2.9-1.1 4 0 1.1 1.1 1.1 2.8 0 3.9L29.4 41.3c-1.1 1.1-2.9 1.1-4 0l-8.2 8.5z" fill="url(#g)" opacity=".95"/>
<circle cx="32" cy="32" r="3.6" fill="#ffd25a"/>
</svg>